# xmcd CD database file
#
# Track frame offsets:
#	150
#	14366
#	32640
#	47778
#	70439
#	99856
#	118309
#	141752
#	165301
#	185459
#	198894
#	219861
#	232578
#	257626
#	277117
#	303077
#	317020
#	337657
#
# Disc length: 4733 seconds
#
# Revision: 0
# Processed by: cddbd v1.5.2PL0 Copyright (c) Steve Scherf et al.
# Submitted via: CDex 1.70beta2
#
DISCID=ec127b12
DTITLE=Salsa Mix Party - cd 1
DYEAR=1900
DGENRE=Salsa
TTITLE0=Intro   Dj Mario  , Dj Del Antigua  
TTITLE1=Mi Saisa Tiene Sandunga  La Orquestra Reve
TTITLE2=Tiene Swing  Sonora Carruseles
TTITLE3=Si No Fuera Por Las Mujeres  Adalberto Alvarez
TTITLE4=Somos Calle Real  Calle Real
TTITLE5=Rumba Del Barrio  Luisito Rosario
TTITLE6=La Salsa Y Guaguanco  La Excelencia
TTITLE7=La Negra No Quiere  Grupo Niche
TTITLE8=Pasta Y Tostones  Paolo Fg
TTITLE9=Razones  Salsa Fever
TTITLE10=Amores Como El Nuestro  Jerry Rivera
TTITLE11=Soсar De Tus Besos  Miami's Band
TTITLE12=No Imaginas  La Contrabanda
TTITLE13=Cuando Faltas Tu  Puerto Rican Power 
TTITLE14=El Preso (Nueva Version) Fruko Y Sus Tesos
TTITLE15=Yo No Soy Mentiroso  Pio Leiva
TTITLE16=Aguarachar  Yumuri Y Sus Hermanos
TTITLE17=Pare Cochero  Irakere 
EXTD=
EXTT0=
EXTT1=
EXTT2=
EXTT3=
EXTT4=
EXTT5=
EXTT6=
EXTT7=
EXTT8=
EXTT9=
EXTT10=
EXTT11=
EXTT12=
EXTT13=
EXTT14=
EXTT15=
EXTT16=
EXTT17=
PLAYORDER=
